<mxfile host="Electron" agent="Mozilla/5.0 (Windows NT 10.0; Win64; x64) AppleWebKit/537.36 (KHTML, like Gecko) draw.io/26.2.2 Chrome/134.0.6998.178 Electron/35.1.2 Safari/537.36" version="26.2.2" pages="2">
  <diagram name="a" id="EoOuGPBxdGp71XJYEUh-">
    <mxGraphModel dx="1044" dy="722" grid="1" gridSize="10" guides="1" tooltips="1" connect="1" arrows="1" fold="1" page="1" pageScale="1" pageWidth="827" pageHeight="1169" math="0" shadow="0">
      <root>
        <mxCell id="0" />
        <mxCell id="1" parent="0" />
        <mxCell id="mLOPyRHvWxFidjaPoVnZ-13" style="edgeStyle=orthogonalEdgeStyle;rounded=0;orthogonalLoop=1;jettySize=auto;html=1;exitX=1;exitY=0.5;exitDx=0;exitDy=0;entryX=0;entryY=0.5;entryDx=0;entryDy=0;strokeWidth=3;" parent="1" source="mLOPyRHvWxFidjaPoVnZ-2" target="mLOPyRHvWxFidjaPoVnZ-6" edge="1">
          <mxGeometry relative="1" as="geometry" />
        </mxCell>
        <mxCell id="mLOPyRHvWxFidjaPoVnZ-2" value="&lt;font style=&quot;font-size: 24px;&quot;&gt;Render&lt;/font&gt;&lt;div&gt;&lt;font style=&quot;font-size: 24px;&quot;&gt;Tree&lt;/font&gt;&lt;/div&gt;" style="rounded=0;whiteSpace=wrap;html=1;fillColor=#2ECC71;" parent="1" vertex="1">
          <mxGeometry x="360" y="250" width="120" height="60" as="geometry" />
        </mxCell>
        <mxCell id="mLOPyRHvWxFidjaPoVnZ-12" style="edgeStyle=orthogonalEdgeStyle;rounded=0;orthogonalLoop=1;jettySize=auto;html=1;exitX=1;exitY=0.5;exitDx=0;exitDy=0;entryX=0.5;entryY=1;entryDx=0;entryDy=0;strokeWidth=3;" parent="1" source="mLOPyRHvWxFidjaPoVnZ-3" target="mLOPyRHvWxFidjaPoVnZ-2" edge="1">
          <mxGeometry relative="1" as="geometry" />
        </mxCell>
        <mxCell id="mLOPyRHvWxFidjaPoVnZ-3" value="&lt;font style=&quot;font-size: 24px;&quot;&gt;CSSOM&lt;/font&gt;" style="rounded=0;whiteSpace=wrap;html=1;fillColor=#D2B4DE;" parent="1" vertex="1">
          <mxGeometry x="200" y="320" width="120" height="60" as="geometry" />
        </mxCell>
        <mxCell id="mLOPyRHvWxFidjaPoVnZ-9" style="edgeStyle=orthogonalEdgeStyle;rounded=0;orthogonalLoop=1;jettySize=auto;html=1;exitX=1;exitY=0.5;exitDx=0;exitDy=0;entryX=0;entryY=0.5;entryDx=0;entryDy=0;strokeWidth=3;" parent="1" source="mLOPyRHvWxFidjaPoVnZ-4" target="mLOPyRHvWxFidjaPoVnZ-3" edge="1">
          <mxGeometry relative="1" as="geometry" />
        </mxCell>
        <mxCell id="mLOPyRHvWxFidjaPoVnZ-4" value="&lt;font style=&quot;font-size: 24px;&quot;&gt;CSS&lt;/font&gt;" style="rounded=0;whiteSpace=wrap;html=1;fillColor=#9B59B6;" parent="1" vertex="1">
          <mxGeometry x="40" y="320" width="120" height="60" as="geometry" />
        </mxCell>
        <mxCell id="mLOPyRHvWxFidjaPoVnZ-10" style="edgeStyle=orthogonalEdgeStyle;rounded=0;orthogonalLoop=1;jettySize=auto;html=1;exitX=1;exitY=0.5;exitDx=0;exitDy=0;entryX=0;entryY=0.5;entryDx=0;entryDy=0;strokeWidth=3;" parent="1" source="mLOPyRHvWxFidjaPoVnZ-5" target="mLOPyRHvWxFidjaPoVnZ-7" edge="1">
          <mxGeometry relative="1" as="geometry" />
        </mxCell>
        <mxCell id="mLOPyRHvWxFidjaPoVnZ-5" value="&lt;font style=&quot;font-size: 24px;&quot;&gt;HTML&lt;/font&gt;" style="rounded=0;whiteSpace=wrap;html=1;fillColor=light-dark(#3498DB,#000000);" parent="1" vertex="1">
          <mxGeometry x="40" y="180" width="120" height="60" as="geometry" />
        </mxCell>
        <mxCell id="mLOPyRHvWxFidjaPoVnZ-14" style="edgeStyle=orthogonalEdgeStyle;rounded=0;orthogonalLoop=1;jettySize=auto;html=1;exitX=1;exitY=0.5;exitDx=0;exitDy=0;entryX=0;entryY=0.5;entryDx=0;entryDy=0;strokeWidth=3;" parent="1" source="mLOPyRHvWxFidjaPoVnZ-6" target="mLOPyRHvWxFidjaPoVnZ-8" edge="1">
          <mxGeometry relative="1" as="geometry" />
        </mxCell>
        <mxCell id="mLOPyRHvWxFidjaPoVnZ-6" value="&lt;font style=&quot;font-size: 24px;&quot;&gt;Layout&lt;/font&gt;" style="rounded=0;whiteSpace=wrap;html=1;fillColor=#E67E22;" parent="1" vertex="1">
          <mxGeometry x="520" y="250" width="120" height="60" as="geometry" />
        </mxCell>
        <mxCell id="mLOPyRHvWxFidjaPoVnZ-11" style="edgeStyle=orthogonalEdgeStyle;rounded=0;orthogonalLoop=1;jettySize=auto;html=1;exitX=1;exitY=0.5;exitDx=0;exitDy=0;entryX=0.5;entryY=0;entryDx=0;entryDy=0;strokeWidth=3;" parent="1" source="mLOPyRHvWxFidjaPoVnZ-7" target="mLOPyRHvWxFidjaPoVnZ-2" edge="1">
          <mxGeometry relative="1" as="geometry" />
        </mxCell>
        <mxCell id="mLOPyRHvWxFidjaPoVnZ-7" value="&lt;font style=&quot;font-size: 24px;&quot;&gt;DOM&lt;/font&gt;" style="rounded=0;whiteSpace=wrap;html=1;fillColor=#5DADE2;" parent="1" vertex="1">
          <mxGeometry x="200" y="180" width="120" height="60" as="geometry" />
        </mxCell>
        <mxCell id="hMgDd-XYo7ru9u5y9hOi-2" style="edgeStyle=orthogonalEdgeStyle;rounded=0;orthogonalLoop=1;jettySize=auto;html=1;exitX=1;exitY=0.5;exitDx=0;exitDy=0;entryX=0;entryY=0.5;entryDx=0;entryDy=0;strokeWidth=3;" parent="1" source="mLOPyRHvWxFidjaPoVnZ-8" target="hMgDd-XYo7ru9u5y9hOi-1" edge="1">
          <mxGeometry relative="1" as="geometry" />
        </mxCell>
        <mxCell id="mLOPyRHvWxFidjaPoVnZ-8" value="&lt;font style=&quot;font-size: 24px;&quot;&gt;Paint&lt;/font&gt;" style="rounded=0;whiteSpace=wrap;html=1;fillColor=#E74C3C;" parent="1" vertex="1">
          <mxGeometry x="680" y="250" width="120" height="60" as="geometry" />
        </mxCell>
        <mxCell id="hMgDd-XYo7ru9u5y9hOi-1" value="&lt;font style=&quot;font-size: 20px; color: light-dark(rgb(255, 255, 255), rgb(0, 0, 0));&quot;&gt;Compositing&lt;/font&gt;" style="rounded=0;whiteSpace=wrap;html=1;fillColor=#34495E;" parent="1" vertex="1">
          <mxGeometry x="840" y="250" width="120" height="60" as="geometry" />
        </mxCell>
      </root>
    </mxGraphModel>
  </diagram>
  <diagram name="b" id="_OW0HQvx-UvCNRzQ4n5O">
    <mxGraphModel dx="1044" dy="722" grid="1" gridSize="10" guides="1" tooltips="1" connect="1" arrows="1" fold="1" page="1" pageScale="1" pageWidth="827" pageHeight="1169" math="0" shadow="0">
      <root>
        <mxCell id="S6OlicUq3QSzaoifu-8u-0" />
        <mxCell id="S6OlicUq3QSzaoifu-8u-1" parent="S6OlicUq3QSzaoifu-8u-0" />
        <mxCell id="S6OlicUq3QSzaoifu-8u-2" style="edgeStyle=orthogonalEdgeStyle;rounded=0;orthogonalLoop=1;jettySize=auto;html=1;exitX=1;exitY=0.5;exitDx=0;exitDy=0;entryX=0;entryY=0.5;entryDx=0;entryDy=0;strokeWidth=3;" edge="1" parent="S6OlicUq3QSzaoifu-8u-1" source="S6OlicUq3QSzaoifu-8u-3" target="Ag3yAp79Kti80MqdudpV-1">
          <mxGeometry relative="1" as="geometry" />
        </mxCell>
        <mxCell id="S6OlicUq3QSzaoifu-8u-3" value="&lt;font style=&quot;font-size: 24px;&quot;&gt;Render&lt;/font&gt;&lt;div&gt;&lt;font style=&quot;font-size: 24px;&quot;&gt;Tree&lt;/font&gt;&lt;/div&gt;" style="rounded=0;whiteSpace=wrap;html=1;fillColor=#2ECC71;" vertex="1" parent="S6OlicUq3QSzaoifu-8u-1">
          <mxGeometry x="360" y="250" width="120" height="60" as="geometry" />
        </mxCell>
        <mxCell id="S6OlicUq3QSzaoifu-8u-4" style="edgeStyle=orthogonalEdgeStyle;rounded=0;orthogonalLoop=1;jettySize=auto;html=1;exitX=1;exitY=0.5;exitDx=0;exitDy=0;entryX=0.5;entryY=1;entryDx=0;entryDy=0;strokeWidth=3;" edge="1" parent="S6OlicUq3QSzaoifu-8u-1" source="S6OlicUq3QSzaoifu-8u-5" target="S6OlicUq3QSzaoifu-8u-3">
          <mxGeometry relative="1" as="geometry" />
        </mxCell>
        <mxCell id="S6OlicUq3QSzaoifu-8u-5" value="&lt;font style=&quot;font-size: 24px;&quot;&gt;CSSOM&lt;/font&gt;" style="rounded=0;whiteSpace=wrap;html=1;fillColor=#D2B4DE;" vertex="1" parent="S6OlicUq3QSzaoifu-8u-1">
          <mxGeometry x="200" y="320" width="120" height="60" as="geometry" />
        </mxCell>
        <mxCell id="S6OlicUq3QSzaoifu-8u-6" style="edgeStyle=orthogonalEdgeStyle;rounded=0;orthogonalLoop=1;jettySize=auto;html=1;exitX=0.5;exitY=1;exitDx=0;exitDy=0;entryX=0;entryY=0.5;entryDx=0;entryDy=0;strokeWidth=3;" edge="1" parent="S6OlicUq3QSzaoifu-8u-1" source="Ag3yAp79Kti80MqdudpV-0" target="S6OlicUq3QSzaoifu-8u-5">
          <mxGeometry relative="1" as="geometry" />
        </mxCell>
        <mxCell id="S6OlicUq3QSzaoifu-8u-8" style="edgeStyle=orthogonalEdgeStyle;rounded=0;orthogonalLoop=1;jettySize=auto;html=1;exitX=0.5;exitY=0;exitDx=0;exitDy=0;entryX=0;entryY=0.5;entryDx=0;entryDy=0;strokeWidth=3;" edge="1" parent="S6OlicUq3QSzaoifu-8u-1" source="Ag3yAp79Kti80MqdudpV-0" target="S6OlicUq3QSzaoifu-8u-13">
          <mxGeometry relative="1" as="geometry" />
        </mxCell>
        <mxCell id="S6OlicUq3QSzaoifu-8u-11" value="&lt;font style=&quot;font-size: 24px;&quot;&gt;Layout&lt;/font&gt;" style="rounded=0;whiteSpace=wrap;html=1;fillColor=#E67E22;" vertex="1" parent="S6OlicUq3QSzaoifu-8u-1">
          <mxGeometry x="530" y="320" width="120" height="60" as="geometry" />
        </mxCell>
        <mxCell id="S6OlicUq3QSzaoifu-8u-12" style="edgeStyle=orthogonalEdgeStyle;rounded=0;orthogonalLoop=1;jettySize=auto;html=1;exitX=1;exitY=0.5;exitDx=0;exitDy=0;strokeWidth=3;entryX=0.5;entryY=0;entryDx=0;entryDy=0;" edge="1" parent="S6OlicUq3QSzaoifu-8u-1" source="S6OlicUq3QSzaoifu-8u-13" target="Ag3yAp79Kti80MqdudpV-23">
          <mxGeometry relative="1" as="geometry">
            <mxPoint x="390" y="180" as="targetPoint" />
          </mxGeometry>
        </mxCell>
        <mxCell id="S6OlicUq3QSzaoifu-8u-13" value="&lt;font style=&quot;font-size: 24px;&quot;&gt;DOM&lt;/font&gt;" style="rounded=0;whiteSpace=wrap;html=1;fillColor=#5DADE2;" vertex="1" parent="S6OlicUq3QSzaoifu-8u-1">
          <mxGeometry x="200" y="180" width="120" height="60" as="geometry" />
        </mxCell>
        <mxCell id="S6OlicUq3QSzaoifu-8u-14" style="edgeStyle=orthogonalEdgeStyle;rounded=0;orthogonalLoop=1;jettySize=auto;html=1;exitX=1;exitY=0.5;exitDx=0;exitDy=0;entryX=0;entryY=0.5;entryDx=0;entryDy=0;strokeWidth=3;" edge="1" parent="S6OlicUq3QSzaoifu-8u-1" source="S6OlicUq3QSzaoifu-8u-15" target="S6OlicUq3QSzaoifu-8u-16">
          <mxGeometry relative="1" as="geometry" />
        </mxCell>
        <mxCell id="S6OlicUq3QSzaoifu-8u-15" value="&lt;font style=&quot;font-size: 24px;&quot;&gt;Paint&lt;/font&gt;" style="rounded=0;whiteSpace=wrap;html=1;fillColor=#E74C3C;" vertex="1" parent="S6OlicUq3QSzaoifu-8u-1">
          <mxGeometry x="700" y="320" width="120" height="60" as="geometry" />
        </mxCell>
        <mxCell id="S6OlicUq3QSzaoifu-8u-16" value="&lt;font style=&quot;font-size: 20px; color: light-dark(rgb(255, 255, 255), rgb(0, 0, 0));&quot;&gt;Compositing&lt;/font&gt;" style="rounded=0;whiteSpace=wrap;html=1;fillColor=#34495E;" vertex="1" parent="S6OlicUq3QSzaoifu-8u-1">
          <mxGeometry x="870" y="320" width="120" height="60" as="geometry" />
        </mxCell>
        <mxCell id="Ag3yAp79Kti80MqdudpV-0" value="&lt;font style=&quot;font-size: 16px;&quot;&gt;JS, User actions, System Actions, Animations, Resorces&lt;/font&gt;" style="rounded=0;whiteSpace=wrap;html=1;fillColor=#fff2cc;strokeColor=#d6b656;" vertex="1" parent="S6OlicUq3QSzaoifu-8u-1">
          <mxGeometry x="40" y="230" width="120" height="100" as="geometry" />
        </mxCell>
        <mxCell id="Ag3yAp79Kti80MqdudpV-1" value="&lt;font style=&quot;font-size: 20px;&quot;&gt;Layout?&lt;/font&gt;" style="rhombus;whiteSpace=wrap;html=1;" vertex="1" parent="S6OlicUq3QSzaoifu-8u-1">
          <mxGeometry x="530" y="190" width="120" height="70" as="geometry" />
        </mxCell>
        <mxCell id="Ag3yAp79Kti80MqdudpV-2" value="&lt;font style=&quot;font-size: 20px;&quot;&gt;&lt;span style=&quot;font-size: 24px;&quot;&gt;Paint&lt;/span&gt;?&lt;/font&gt;" style="rhombus;whiteSpace=wrap;html=1;" vertex="1" parent="S6OlicUq3QSzaoifu-8u-1">
          <mxGeometry x="700" y="190" width="120" height="70" as="geometry" />
        </mxCell>
        <mxCell id="Ag3yAp79Kti80MqdudpV-3" value="&lt;font style=&quot;color: light-dark(rgb(0, 0, 0), rgb(0, 0, 0)); font-size: 14px; background-color: light-dark(#ffffff, var(--ge-dark-color, #121212));&quot;&gt;Compositing?&lt;/font&gt;" style="rhombus;whiteSpace=wrap;html=1;" vertex="1" parent="S6OlicUq3QSzaoifu-8u-1">
          <mxGeometry x="870" y="190" width="120" height="70" as="geometry" />
        </mxCell>
        <mxCell id="Ag3yAp79Kti80MqdudpV-4" style="edgeStyle=orthogonalEdgeStyle;rounded=0;orthogonalLoop=1;jettySize=auto;html=1;strokeWidth=3;exitX=0.5;exitY=1;exitDx=0;exitDy=0;entryX=0.5;entryY=0;entryDx=0;entryDy=0;" edge="1" parent="S6OlicUq3QSzaoifu-8u-1" source="Ag3yAp79Kti80MqdudpV-1" target="Ag3yAp79Kti80MqdudpV-24">
          <mxGeometry relative="1" as="geometry">
            <mxPoint x="470" y="385" as="sourcePoint" />
            <mxPoint x="660" y="270" as="targetPoint" />
          </mxGeometry>
        </mxCell>
        <mxCell id="Ag3yAp79Kti80MqdudpV-6" style="edgeStyle=orthogonalEdgeStyle;rounded=0;orthogonalLoop=1;jettySize=auto;html=1;exitX=1;exitY=0.5;exitDx=0;exitDy=0;entryX=0;entryY=0.5;entryDx=0;entryDy=0;strokeWidth=3;" edge="1" parent="S6OlicUq3QSzaoifu-8u-1" source="Ag3yAp79Kti80MqdudpV-1" target="Ag3yAp79Kti80MqdudpV-2">
          <mxGeometry relative="1" as="geometry">
            <mxPoint x="500" y="235" as="sourcePoint" />
            <mxPoint x="540" y="235" as="targetPoint" />
          </mxGeometry>
        </mxCell>
        <mxCell id="Ag3yAp79Kti80MqdudpV-10" style="edgeStyle=orthogonalEdgeStyle;rounded=0;orthogonalLoop=1;jettySize=auto;html=1;exitX=1;exitY=0.5;exitDx=0;exitDy=0;strokeWidth=3;" edge="1" parent="S6OlicUq3QSzaoifu-8u-1" source="Ag3yAp79Kti80MqdudpV-2">
          <mxGeometry relative="1" as="geometry">
            <mxPoint x="820" y="165" as="sourcePoint" />
            <mxPoint x="870" y="225" as="targetPoint" />
          </mxGeometry>
        </mxCell>
        <mxCell id="Ag3yAp79Kti80MqdudpV-11" style="edgeStyle=orthogonalEdgeStyle;rounded=0;orthogonalLoop=1;jettySize=auto;html=1;strokeWidth=3;exitX=0.5;exitY=1;exitDx=0;exitDy=0;entryX=0.5;entryY=0;entryDx=0;entryDy=0;" edge="1" parent="S6OlicUq3QSzaoifu-8u-1" source="Ag3yAp79Kti80MqdudpV-3" target="Ag3yAp79Kti80MqdudpV-29">
          <mxGeometry relative="1" as="geometry">
            <mxPoint x="600" y="270" as="sourcePoint" />
            <mxPoint x="1000" y="260" as="targetPoint" />
          </mxGeometry>
        </mxCell>
        <mxCell id="Ag3yAp79Kti80MqdudpV-12" style="edgeStyle=orthogonalEdgeStyle;rounded=0;orthogonalLoop=1;jettySize=auto;html=1;strokeWidth=3;exitX=0.5;exitY=1;exitDx=0;exitDy=0;entryX=0.5;entryY=0;entryDx=0;entryDy=0;" edge="1" parent="S6OlicUq3QSzaoifu-8u-1" source="Ag3yAp79Kti80MqdudpV-2" target="Ag3yAp79Kti80MqdudpV-25">
          <mxGeometry relative="1" as="geometry">
            <mxPoint x="610" y="280" as="sourcePoint" />
            <mxPoint x="820" y="270" as="targetPoint" />
          </mxGeometry>
        </mxCell>
        <mxCell id="Ag3yAp79Kti80MqdudpV-13" style="edgeStyle=orthogonalEdgeStyle;rounded=0;orthogonalLoop=1;jettySize=auto;html=1;exitX=1;exitY=0.5;exitDx=0;exitDy=0;entryX=0;entryY=0.5;entryDx=0;entryDy=0;strokeWidth=3;" edge="1" parent="S6OlicUq3QSzaoifu-8u-1" source="S6OlicUq3QSzaoifu-8u-11" target="S6OlicUq3QSzaoifu-8u-15">
          <mxGeometry relative="1" as="geometry">
            <mxPoint x="830" y="345" as="sourcePoint" />
            <mxPoint x="880" y="345" as="targetPoint" />
          </mxGeometry>
        </mxCell>
        <mxCell id="Ag3yAp79Kti80MqdudpV-15" style="edgeStyle=orthogonalEdgeStyle;rounded=0;orthogonalLoop=1;jettySize=auto;html=1;exitX=1;exitY=0.5;exitDx=0;exitDy=0;strokeWidth=3;" edge="1" parent="S6OlicUq3QSzaoifu-8u-1" source="Ag3yAp79Kti80MqdudpV-3">
          <mxGeometry relative="1" as="geometry">
            <mxPoint x="830" y="235" as="sourcePoint" />
            <mxPoint x="1020" y="225" as="targetPoint" />
          </mxGeometry>
        </mxCell>
        <mxCell id="Ag3yAp79Kti80MqdudpV-18" value="" style="ellipse;html=1;shape=endState;fillColor=#000000;strokeColor=#ff0000;" vertex="1" parent="S6OlicUq3QSzaoifu-8u-1">
          <mxGeometry x="1020" y="210" width="30" height="30" as="geometry" />
        </mxCell>
        <mxCell id="Ag3yAp79Kti80MqdudpV-19" style="edgeStyle=orthogonalEdgeStyle;rounded=0;orthogonalLoop=1;jettySize=auto;html=1;exitX=1;exitY=0.5;exitDx=0;exitDy=0;entryX=0.5;entryY=1;entryDx=0;entryDy=0;strokeWidth=3;" edge="1" parent="S6OlicUq3QSzaoifu-8u-1" source="S6OlicUq3QSzaoifu-8u-16" target="Ag3yAp79Kti80MqdudpV-18">
          <mxGeometry relative="1" as="geometry">
            <mxPoint x="830" y="345" as="sourcePoint" />
            <mxPoint x="880" y="345" as="targetPoint" />
          </mxGeometry>
        </mxCell>
        <mxCell id="Ag3yAp79Kti80MqdudpV-21" value="Cache" style="rounded=0;whiteSpace=wrap;html=1;" vertex="1" parent="S6OlicUq3QSzaoifu-8u-1">
          <mxGeometry x="200" y="170" width="120" height="20" as="geometry" />
        </mxCell>
        <mxCell id="Ag3yAp79Kti80MqdudpV-22" value="Cache" style="rounded=0;whiteSpace=wrap;html=1;" vertex="1" parent="S6OlicUq3QSzaoifu-8u-1">
          <mxGeometry x="200" y="300" width="120" height="20" as="geometry" />
        </mxCell>
        <mxCell id="Ag3yAp79Kti80MqdudpV-23" value="Cache" style="rounded=0;whiteSpace=wrap;html=1;" vertex="1" parent="S6OlicUq3QSzaoifu-8u-1">
          <mxGeometry x="360" y="230" width="120" height="20" as="geometry" />
        </mxCell>
        <mxCell id="Ag3yAp79Kti80MqdudpV-24" value="Cache" style="rounded=0;whiteSpace=wrap;html=1;" vertex="1" parent="S6OlicUq3QSzaoifu-8u-1">
          <mxGeometry x="530" y="300" width="120" height="20" as="geometry" />
        </mxCell>
        <mxCell id="Ag3yAp79Kti80MqdudpV-25" value="Cache" style="rounded=0;whiteSpace=wrap;html=1;" vertex="1" parent="S6OlicUq3QSzaoifu-8u-1">
          <mxGeometry x="700" y="300" width="120" height="20" as="geometry" />
        </mxCell>
        <mxCell id="Ag3yAp79Kti80MqdudpV-29" value="Cache" style="rounded=0;whiteSpace=wrap;html=1;" vertex="1" parent="S6OlicUq3QSzaoifu-8u-1">
          <mxGeometry x="870" y="300" width="120" height="20" as="geometry" />
        </mxCell>
        <mxCell id="Ag3yAp79Kti80MqdudpV-30" value="&lt;span style=&quot;font-size: 16px;&quot;&gt;No&lt;/span&gt;" style="text;html=1;align=center;verticalAlign=middle;whiteSpace=wrap;rounded=0;" vertex="1" parent="S6OlicUq3QSzaoifu-8u-1">
          <mxGeometry x="960" y="195" width="60" height="30" as="geometry" />
        </mxCell>
        <mxCell id="Ag3yAp79Kti80MqdudpV-31" value="&lt;font style=&quot;font-size: 16px;&quot;&gt;Yes&lt;/font&gt;" style="text;html=1;align=center;verticalAlign=middle;whiteSpace=wrap;rounded=0;" vertex="1" parent="S6OlicUq3QSzaoifu-8u-1">
          <mxGeometry x="580" y="250" width="60" height="30" as="geometry" />
        </mxCell>
        <mxCell id="Ag3yAp79Kti80MqdudpV-32" value="&lt;font style=&quot;font-size: 16px;&quot;&gt;Yes&lt;/font&gt;" style="text;html=1;align=center;verticalAlign=middle;whiteSpace=wrap;rounded=0;" vertex="1" parent="S6OlicUq3QSzaoifu-8u-1">
          <mxGeometry x="750" y="250" width="60" height="30" as="geometry" />
        </mxCell>
        <mxCell id="Ag3yAp79Kti80MqdudpV-33" value="&lt;font style=&quot;font-size: 16px;&quot;&gt;Yes&lt;/font&gt;" style="text;html=1;align=center;verticalAlign=middle;whiteSpace=wrap;rounded=0;" vertex="1" parent="S6OlicUq3QSzaoifu-8u-1">
          <mxGeometry x="920" y="250" width="60" height="30" as="geometry" />
        </mxCell>
        <mxCell id="Ag3yAp79Kti80MqdudpV-34" value="&lt;span style=&quot;font-size: 16px;&quot;&gt;No&lt;/span&gt;" style="text;html=1;align=center;verticalAlign=middle;whiteSpace=wrap;rounded=0;" vertex="1" parent="S6OlicUq3QSzaoifu-8u-1">
          <mxGeometry x="630" y="200" width="60" height="30" as="geometry" />
        </mxCell>
        <mxCell id="Ag3yAp79Kti80MqdudpV-35" value="&lt;span style=&quot;font-size: 16px;&quot;&gt;No&lt;/span&gt;" style="text;html=1;align=center;verticalAlign=middle;whiteSpace=wrap;rounded=0;" vertex="1" parent="S6OlicUq3QSzaoifu-8u-1">
          <mxGeometry x="800" y="200" width="60" height="30" as="geometry" />
        </mxCell>
      </root>
    </mxGraphModel>
  </diagram>
</mxfile>
